HIERARCHY
ROOT Hips
{
   OFFSET 0.00000 0.00000 0.00000
   CHANNELS 6 Xposition Yposition Zposition Zrotation Xrotation Yrotation
   JOINT Spine
   {
      OFFSET 0.000000 11.890501 0.000000
      CHANNELS 3 Zrotation Xrotation Yrotation
      JOINT Spine1
      {
         OFFSET -0.000000 25.657401 0.127660
         CHANNELS 3 Zrotation Xrotation Yrotation
         JOINT HEad
         {
            OFFSET 0.000000 8.734161 0.011340
            CHANNELS 3 Zrotation Xrotation Yrotation
            End Site
            {
               OFFSET -0.290000 12.774200 2.513950
            }
         }
         JOINT LeftShoulder1
         {
            OFFSET 8.990000 -0.362250 -0.220000
            CHANNELS 3 Zrotation Xrotation Yrotation
            JOINT LeftArm
            {
               OFFSET 10.282700 -0.003380 0.322120
               CHANNELS 3 Zrotation Xrotation Yrotation
               JOINT LeftForeArm
               {
                  OFFSET 32.766900 0.099140 -1.424340
                  CHANNELS 3 Zrotation Xrotation Yrotation
                  JOINT LeftHand
                  {
                     OFFSET 27.564301 0.085360 1.022160
                     CHANNELS 3 Zrotation Xrotation Yrotation
                     End Site
                     {
                        OFFSET 16.744301 -0.600000 1.502910
                     }
                  }
               }
            }
         }
         JOINT RightShoulder
         {
            OFFSET -8.990000 -0.362250 -0.220000
            CHANNELS 3 Zrotation Xrotation Yrotation
            JOINT RightArm
            {
               OFFSET -10.282700 -0.003380 0.322120
               CHANNELS 3 Zrotation Xrotation Yrotation
               JOINT RightForeArm
               {
                  OFFSET -32.897098 0.099140 -1.424340
                  CHANNELS 3 Zrotation Xrotation Yrotation
                  JOINT RightHand
                  {
                     OFFSET -27.492101 0.085360 1.022160
                     CHANNELS 3 Zrotation Xrotation Yrotation
                     End Site
                     {
                        OFFSET -16.631201 -0.600000 1.502910
                     }
                  }
               }
            }
         }
      }
   }
   JOINT LeftUpLeg
   {
      OFFSET 8.945800 -8.667070 0.101650
      CHANNELS 3 Zrotation Xrotation Yrotation
      JOINT LeftLeg
      {
         OFFSET 0.000000 -44.422697 1.372700
         CHANNELS 3 Zrotation Xrotation Yrotation
         JOINT LeftFoot
         {
            OFFSET -0.253550 -42.092399 -1.460590
            CHANNELS 3 Zrotation Xrotation Yrotation
            JOINT LeftToes
            {
               OFFSET -0.040000 -4.415090 8.499099
               CHANNELS 3 Zrotation Xrotation Yrotation
               End Site
               {
                  OFFSET 0.080000 -0.047450 9.779790
               }
            }
         }
      }
   }
   JOINT RightUpLeg
   {
      OFFSET -8.945800 -8.667070 0.101650
      CHANNELS 3 Zrotation Xrotation Yrotation
      JOINT RightLeg
      {
         OFFSET 0.000000 -44.422697 1.372700
         CHANNELS 3 Zrotation Xrotation Yrotation
         JOINT RightFoot
         {
            OFFSET 0.253550 -42.092399 -1.460590
            CHANNELS 3 Zrotation Xrotation Yrotation
            JOINT RightToes
            {
               OFFSET 0.040000 -4.415090 8.499099
               CHANNELS 3 Zrotation Xrotation Yrotation
               End Site
               {
                  OFFSET -0.080000 -0.137450 9.779790
               }
            }
         }
      }
   }
}
MOTION
Frames: 10
Frame Time: 0.016670
-53.633336 95.109166 -117.227762 -2.552338 -18.416750 0.232346 -12.172369 23.081873 131.403086 19.812159 -20.214032 -141.198670 -24.268659 33.467500 -0.132867 53.585727 70.686003 -56.861198 165.966329 -84.644861 128.875056 397.440184 -10.831621 -23.349323 -66.778001 -51.829647 -91.481573 -16.487829 69.354950 70.377415 108.985654 178.382165 200.262116 104.246753 205.686489 177.001415 -60.524424 -63.084659 -17.698089 17.013800 -7.259572 -52.472092 -18.217320 -10.691381 71.852238 -12.626526 31.368060 14.271910 -10.211844 -6.938322 -29.367836 -8.996715 -2.438948 -13.183693 9.247126 26.090609 -3.520313 -42.323694 -3.354736 41.015201 27.932011 -28.248165 -46.685671
-53.575486 95.081280 -117.322968 -2.080763 -17.128670 -1.640286 -9.454262 23.479562 131.480923 18.000905 -19.454098 -141.108375 -24.177307 30.666064 1.201385 54.149139 73.354989 -60.574537 176.491105 -80.750492 136.510538 397.861224 -10.925259 -23.400353 -66.322079 -51.435706 -91.080108 -19.068956 69.712421 76.624498 109.066899 182.958269 199.768594 106.756232 195.497472 183.946242 -68.465980 -67.492309 -21.156663 17.094430 -7.750269 -54.109179 -17.257011 -12.487886 71.285803 -12.085497 31.709744 16.111325 -11.486126 -7.580716 -27.474544 -9.816120 -4.819744 -14.533070 8.355901 27.858723 -1.234119 -42.331142 -4.194149 40.870182 27.930532 -29.149451 -46.676031
-53.443574 95.018652 -117.353981 -2.448905 -16.440117 -2.843819 -8.564618 23.524203 131.268777 16.986197 -18.327249 -141.691414 -23.968949 28.926059 2.309091 55.281505 76.453654 -63.327048 184.827077 -77.110589 142.219524 397.566542 -9.663422 -24.276690 -66.616864 -50.834024 -90.282151 -23.473931 71.401117 81.984209 109.993114 187.053009 199.696372 107.406241 188.065762 187.780164 -75.918973 -71.701967 -26.839652 17.608079 -7.996925 -55.960921 -16.255019 -13.593172 71.085993 -11.721389 31.929806 17.763309 -12.671072 -8.360654 -26.020864 -9.572583 -6.191934 -15.824628 7.595804 28.759444 0.903452 -42.209264 -4.626284 40.980889 27.692724 -29.845239 -46.727421
-53.299026 94.919966 -117.314203 -2.805148 -16.098221 -3.749871 -7.548784 23.202907 131.207948 16.222575 -17.074496 -141.946262 -23.625308 27.871668 3.190423 56.644419 78.983652 -65.734786 191.526851 -73.904436 146.201920 396.723888 -7.925899 -25.329359 -66.870550 -49.906259 -89.433049 -28.639695 73.699722 87.591630 110.926036 191.185492 199.585914 107.458574 182.032970 191.338310 -82.809562 -75.261499 -33.661928 18.114090 -8.193887 -57.948677 -15.552763 -14.466995 71.182517 -11.474816 32.318191 19.212989 -13.727361 -9.086190 -24.911585 -9.389904 -6.970147 -17.117086 6.977679 29.335017 2.767474 -42.013860 -4.791447 41.212310 27.343351 -30.463808 -46.802338
-53.146462 94.821442 -117.264307 -3.172123 -15.666707 -4.350463 -6.935473 23.014717 130.995105 15.338945 -15.668394 -142.172983 -23.242374 27.540089 3.887861 58.566816 80.652643 -68.328406 196.691430 -71.389889 149.752335 395.738073 -6.078220 -27.078456 -67.300087 -49.280054 -88.823619 -34.448250 76.350307 93.750391 111.597450 195.685835 199.479349 107.060128 177.077572 195.020288 -90.012884 -78.744363 -40.430646 18.776496 -8.596433 -60.028880 -14.985338 -15.326733 71.453382 -11.355207 32.724669 20.392821 -14.642978 -9.642100 -24.121733 -9.229375 -7.571056 -18.518741 6.684201 29.690221 4.316363 -41.739313 -4.895144 41.381343 26.983390 -31.010449 -46.858260
-53.003844 94.727744 -117.202624 -3.332821 -15.142019 -4.371608 -6.464789 22.842203 130.643911 14.323993 -13.876421 -142.452775 -22.926828 27.760682 4.443230 61.043538 81.290255 -70.926897 200.577452 -69.662595 153.248422 394.564756 -4.246169 -29.280082 -67.586907 -48.766946 -88.519969 -41.101237 79.767587 100.099701 112.037157 200.222856 199.514484 106.190720 173.083387 198.954367 -96.876412 -81.760376 -47.512186 19.509708 -9.183952 -62.059201 -14.601421 -16.573724 71.880002 -11.371265 33.196905 21.320589 -15.451029 -10.009765 -23.544161 -9.323374 -8.176712 -19.919755 6.553602 30.043052 5.561682 -41.462175 -4.858571 41.517052 26.689046 -31.458758 -46.831117
-52.869839 94.646615 -117.110336 -3.970667 -14.498330 -4.611019 -6.982916 23.428196 130.186315 13.342420 -11.471277 -142.932746 -22.869640 28.371315 4.919793 63.821465 81.642549 -72.840423 202.928212 -68.808466 157.689616 393.291363 -2.098560 -31.975790 -68.125024 -48.442345 -88.405522 -48.488794 83.934426 106.622975 111.917007 204.839450 199.978144 104.747050 169.595387 203.171435 -103.551883 -84.635135 -54.637808 19.958772 -10.657538 -64.466495 -14.479953 -16.062194 72.770796 -11.274909 33.592605 22.477640 -16.313364 -10.475522 -23.012272 -9.056134 -8.886927 -21.323289 6.634264 29.966618 6.713092 -41.208591 -4.725396 41.841705 26.453442 -31.733219 -46.579793
-52.687725 94.546774 -117.074078 -4.113528 -14.249803 -4.548803 -6.186519 22.941506 130.875823 13.120484 -10.273561 -141.662140 -23.084521 28.455220 5.330436 66.730600 80.554404 -75.383657 205.513794 -67.983926 159.700819 392.337541 -0.360796 -33.464847 -69.231207 -47.912985 -87.741361 -55.378265 88.535002 114.170737 112.094783 210.181873 201.077641 103.372147 167.078503 207.276297 -110.934020 -87.220778 -58.992241 20.444264 -11.238795 -66.643836 -14.370561 -16.790038 73.489632 -11.359408 33.851999 23.119791 -17.016902 -10.645406 -22.676409 -9.166793 -8.867538 -22.469357 6.668693 30.218024 7.548058 -40.821992 -4.706459 41.907397 26.252978 -32.163658 -46.469475
-52.506622 94.480179 -116.981600 -4.455837 -13.887812 -4.347695 -6.462897 23.198220 131.937289 12.346478 -8.613425 -140.748069 -23.686944 27.888765 5.718759 69.791529 79.527943 -78.037268 207.639130 -66.865619 160.715881 391.282632 1.994478 -34.715628 -71.139330 -46.916026 -86.752473 -63.145597 93.116830 121.846586 114.255281 215.439193 203.883510 102.054965 164.875589 210.869714 -117.363946 -89.454735 -63.774924 21.057690 -12.115731 -68.731442 -14.523769 -17.349995 74.427417 -11.520811 33.861745 23.718136 -17.751370 -10.812102 -22.286740 -9.112685 -9.152897 -23.327121 6.463265 30.119126 8.373380 -40.511600 -4.610721 42.179550 26.058775 -32.418789 -46.165648
-52.315921 94.390687 -116.876810 -4.999769 -13.635913 -4.379622 -6.777415 24.137400 133.202691 11.893451 -7.410809 -139.404762 -23.741019 27.729257 5.899909 72.620668 77.434626 -80.224171 209.115107 -66.097544 161.942050 390.821512 3.198349 -35.026412 -72.401481 -46.120927 -86.075629 -71.482158 97.978101 129.538800 116.965391 219.900099 207.653952 101.115446 163.630979 215.128815 -122.830680 -91.146463 -68.511797 21.682311 -12.903592 -70.809459 -14.751655 -17.638842 75.527030 -11.708092 33.606436 24.281521 -18.522981 -10.977230 -21.883100 -8.809159 -9.293885 -24.075023 6.438617 30.154032 9.037054 -40.047865 -4.538476 42.436139 25.942409 -32.599052 -46.003018
